<?xml version="1.0" encoding="UTF-8"?>
<svg xmlns="http://www.w3.org/2000/svg" xmlns:xlink="http://www.w3.org/1999/xlink" width="px" height="px" viewBox="0 0 107 23" version="1.1">
<g id="surface1">
<path style=" stroke:none;fill-rule:nonzero;fill:rgb(100%,100%,100%);fill-opacity:1;" d="M 26.777344 16.222656 L 27.71875 16.222656 L 27.71875 19.703125 L 26.777344 19.703125 Z M 35.101562 16.222656 L 36.019531 16.222656 L 36.019531 19.703125 L 35 19.703125 L 33.109375 17.289062 L 33.109375 19.71875 L 32.191406 19.71875 L 32.191406 16.222656 L 33.285156 16.222656 L 35.109375 18.652344 L 35.109375 16.222656 Z M 41.429688 16.886719 L 40.140625 16.886719 L 40.140625 16.222656 L 43.664062 16.222656 L 43.664062 16.886719 L 42.375 16.886719 L 42.375 19.703125 L 41.429688 19.703125 Z M 47.785156 16.222656 L 51.03125 16.222656 L 51.03125 16.886719 L 48.726562 16.886719 L 48.726562 17.605469 L 50.917969 17.605469 L 50.917969 18.265625 L 48.726562 18.265625 L 48.726562 19.066406 L 51.046875 19.066406 L 51.046875 19.730469 L 47.785156 19.730469 Z M 55.363281 16.222656 L 57.90625 16.222656 C 58.867188 16.222656 59.03125 16.8125 59.03125 17.167969 C 59.066406 17.542969 58.832031 17.894531 58.46875 18.003906 C 58.878906 18.066406 58.945312 18.59375 58.945312 18.9375 C 58.925781 19.203125 58.988281 19.464844 59.125 19.691406 L 58.105469 19.691406 C 58.015625 19.484375 57.984375 19.25 58.015625 19.023438 C 58.015625 18.515625 57.804688 18.417969 57.503906 18.417969 L 56.335938 18.417969 L 56.335938 19.691406 L 55.394531 19.691406 L 55.394531 16.222656 Z M 56.304688 17.753906 L 57.535156 17.753906 C 57.65625 17.761719 57.773438 17.71875 57.863281 17.632812 C 57.949219 17.550781 57.996094 17.429688 57.988281 17.308594 C 57.992188 17.179688 57.933594 17.054688 57.835938 16.972656 C 57.738281 16.886719 57.605469 16.851562 57.480469 16.875 L 56.277344 16.875 L 56.277344 17.753906 Z M 65.792969 18.980469 L 64.203125 18.980469 L 63.921875 19.699219 L 62.90625 19.699219 L 64.429688 16.21875 L 65.570312 16.21875 L 67.097656 19.699219 L 66.078125 19.699219 Z M 64.996094 16.960938 L 64.453125 18.339844 L 65.539062 18.339844 Z M 74.085938 17.527344 C 73.996094 17.058594 73.566406 16.734375 73.09375 16.777344 C 72.785156 16.765625 72.488281 16.886719 72.277344 17.113281 C 72.070312 17.339844 71.96875 17.644531 72.007812 17.953125 C 71.96875 18.257812 72.070312 18.566406 72.277344 18.792969 C 72.488281 19.019531 72.785156 19.140625 73.09375 19.125 C 73.574219 19.171875 74.007812 18.832031 74.085938 18.355469 L 75.101562 18.355469 C 74.984375 19.375 74.15625 19.789062 73.066406 19.789062 C 71.800781 19.789062 71.03125 19.242188 71.03125 17.953125 C 71.03125 16.660156 71.820312 16.113281 73.066406 16.113281 C 73.902344 16.113281 74.96875 16.328125 75.101562 17.527344 Z M 80.3125 16.875 L 79.027344 16.875 L 79.027344 16.222656 L 82.546875 16.222656 L 82.546875 16.886719 L 81.261719 16.886719 L 81.261719 19.703125 L 80.320312 19.703125 L 80.320312 16.894531 Z M 86.664062 16.222656 L 87.605469 16.222656 L 87.605469 19.703125 L 86.664062 19.703125 Z M 91.632812 16.222656 L 92.648438 16.222656 L 93.667969 18.875 L 94.683594 16.222656 L 95.703125 16.222656 L 94.175781 19.703125 L 93.15625 19.703125 Z M 99.734375 16.222656 L 102.980469 16.222656 L 102.980469 16.886719 L 100.679688 16.886719 L 100.679688 17.605469 L 102.863281 17.605469 L 102.863281 18.265625 L 100.679688 18.265625 L 100.679688 19.066406 L 103 19.066406 L 103 19.730469 L 99.738281 19.730469 L 99.738281 16.222656 Z M 26.703125 5.542969 L 29.871094 5.542969 L 29.871094 6.394531 L 29.898438 6.394531 C 30.488281 5.710938 31.386719 5.34375 32.84375 5.34375 C 34.964844 5.34375 36.914062 6.511719 36.914062 9.175781 C 36.914062 11.84375 34.964844 13.011719 32.84375 13.011719 C 31.511719 13.011719 30.5625 12.683594 30.003906 11.988281 L 29.980469 11.988281 L 29.980469 15.304688 L 26.703125 15.304688 Z M 31.789062 10.8125 C 32.972656 10.8125 33.570312 10.101562 33.570312 9.183594 C 33.570312 8.261719 33.042969 7.542969 31.769531 7.542969 C 30.496094 7.542969 29.972656 8.144531 29.972656 9.171875 C 29.972656 10.199219 30.511719 10.8125 31.785156 10.8125 Z M 38.339844 7.746094 C 38.417969 6.886719 38.945312 6.128906 39.722656 5.757812 C 40.523438 5.390625 41.714844 5.246094 43.445312 5.246094 C 46.78125 5.246094 48.105469 5.996094 48.105469 8.136719 L 48.105469 11.628906 C 48.085938 12.023438 48.191406 12.414062 48.40625 12.746094 L 45.078125 12.746094 C 45.007812 12.515625 44.96875 12.277344 44.960938 12.035156 C 44.226562 12.71875 43.113281 13.058594 41.375 13.058594 C 39.175781 13.058594 37.785156 12.464844 37.785156 10.628906 C 37.785156 9.316406 38.714844 8.472656 41.140625 8.367188 L 43.902344 8.234375 C 44.558594 8.191406 44.777344 8.035156 44.777344 7.640625 C 44.777344 7.167969 44.1875 6.945312 43.25 6.945312 C 42.503906 6.945312 41.761719 7.0625 41.601562 7.761719 L 38.335938 7.761719 Z M 44.863281 9.484375 C 44.316406 9.601562 43.382812 9.683594 42.21875 9.785156 C 41.617188 9.835938 41.328125 10.035156 41.328125 10.496094 C 41.328125 10.953125 41.734375 11.3125 42.542969 11.3125 C 43.644531 11.3125 44.863281 11.035156 44.863281 9.78125 L 44.863281 9.457031 Z M 49.867188 5.566406 L 53.035156 5.566406 L 53.035156 6.945312 L 53.0625 6.945312 C 53.761719 5.953125 54.902344 5.363281 56.117188 5.371094 C 56.476562 5.367188 56.832031 5.394531 57.191406 5.445312 L 57.191406 8.386719 C 56.65625 8.230469 56.105469 8.140625 55.550781 8.125 C 54.386719 8.125 53.140625 8.507812 53.140625 10.054688 L 53.140625 12.75 L 49.855469 12.75 L 49.855469 5.542969 Z M 58.355469 7.746094 C 58.445312 6.886719 58.984375 6.136719 59.769531 5.777344 C 60.570312 5.410156 61.757812 5.265625 63.488281 5.265625 C 66.828125 5.265625 68.152344 6.015625 68.152344 8.15625 L 68.152344 11.628906 C 68.132812 12.023438 68.238281 12.414062 68.453125 12.746094 L 65.097656 12.746094 C 65.027344 12.515625 64.988281 12.277344 64.980469 12.035156 C 64.246094 12.71875 63.132812 13.058594 61.394531 13.058594 C 59.195312 13.058594 57.804688 12.464844 57.804688 10.628906 C 57.804688 9.316406 58.738281 8.472656 61.160156 8.367188 L 63.921875 8.234375 C 64.578125 8.191406 64.796875 8.035156 64.796875 7.640625 C 64.796875 7.167969 64.207031 6.945312 63.269531 6.945312 C 62.523438 6.945312 61.78125 7.0625 61.621094 7.761719 L 58.351562 7.761719 Z M 64.878906 9.484375 C 64.328125 9.601562 63.398438 9.683594 62.234375 9.785156 C 61.632812 9.835938 61.34375 10.035156 61.34375 10.496094 C 61.34375 10.953125 61.75 11.3125 62.558594 11.3125 C 63.65625 11.3125 64.878906 11.035156 64.878906 9.78125 L 64.878906 9.457031 Z M 76.53125 11.996094 L 76.507812 11.996094 C 75.917969 12.679688 75.015625 13.046875 73.5625 13.046875 C 71.4375 13.046875 69.488281 11.878906 69.488281 9.214844 C 69.488281 6.546875 71.4375 5.378906 73.5625 5.378906 C 74.894531 5.378906 75.839844 5.707031 76.398438 6.398438 L 76.425781 6.398438 L 76.425781 3.019531 L 79.699219 3.019531 L 79.699219 12.71875 L 76.527344 12.71875 L 76.527344 11.96875 Z M 74.609375 7.542969 C 73.429688 7.542969 72.828125 8.253906 72.828125 9.171875 C 72.828125 10.089844 73.335938 10.800781 74.625 10.800781 C 75.910156 10.800781 76.421875 10.199219 76.421875 9.171875 C 76.421875 8.144531 75.855469 7.542969 74.609375 7.542969 Z M 86.355469 5.246094 C 90.046875 5.246094 91.65625 6.480469 91.65625 9.121094 C 91.65625 11.761719 90.042969 13.011719 86.355469 13.011719 C 82.664062 13.011719 81.050781 11.777344 81.050781 9.121094 C 81.050781 6.464844 82.664062 5.257812 86.355469 5.257812 Z M 86.355469 10.863281 C 87.675781 10.863281 88.226562 10.257812 88.226562 9.101562 C 88.226562 7.941406 87.675781 7.355469 86.355469 7.355469 C 85.03125 7.355469 84.507812 8.003906 84.507812 9.132812 C 84.507812 10.257812 85.046875 10.890625 86.355469 10.890625 Z M 92.105469 12.699219 L 95.40625 8.941406 L 92.382812 5.511719 L 96.390625 5.511719 L 97.6875 7.441406 L 98.984375 5.511719 L 102.988281 5.511719 L 99.9375 8.941406 L 103.289062 12.699219 L 99.128906 12.699219 L 97.710938 10.65625 L 96.296875 12.699219 Z M 22.671875 12.136719 C 22.535156 11.453125 23.242188 10.863281 22.90625 10.164062 C 22.570312 9.464844 20.949219 9.507812 20.925781 8.710938 C 20.890625 7.789062 22.234375 8.257812 22.796875 8.277344 C 22.796875 6.796875 22.21875 5.527344 20.625 6.527344 C 20.34375 6.5625 20.0625 6.453125 19.878906 6.238281 C 19.367188 5.363281 20.847656 5.175781 20.894531 4.480469 C 20.894531 4.074219 20.417969 3.8125 20.265625 3.460938 C 20.210938 3.214844 20.210938 2.964844 20.265625 2.71875 C 20.265625 2.621094 20.148438 2.617188 20.070312 2.597656 C 19.769531 2.519531 19.492188 2.695312 19.179688 2.628906 C 18.882812 2.492188 18.601562 2.320312 18.34375 2.117188 C 18.277344 2.269531 18.179688 2.402344 18.054688 2.511719 C 17.832031 2.820312 17.039062 3.929688 16.527344 3.449219 C 16.375 3.226562 16.328125 2.941406 16.40625 2.679688 C 16.675781 0.746094 15.980469 0.535156 14.28125 0.265625 C 13.871094 0.199219 12.835938 -0.046875 12.359375 0.0976562 C 12.359375 0.421875 12.773438 2.714844 12.039062 2.59375 C 11.171875 2.59375 11.644531 0.320312 10.382812 0.0390625 C 10.148438 0.0742188 9.929688 0.183594 9.761719 0.347656 C 9.582031 0.605469 9.9375 1.40625 10.015625 1.71875 C 10.121094 2.125 10.101562 2.554688 9.960938 2.949219 L 9.960938 3.03125 C 8.523438 3.03125 8.683594 -0.148438 6.441406 1.417969 C 6.441406 2.269531 8.476562 3.347656 7.769531 4.28125 C 7.644531 4.445312 7.464844 4.558594 7.261719 4.597656 C 6.179688 4.730469 5.734375 2.382812 4.539062 2.59375 C 4.347656 2.640625 4.1875 2.773438 4.101562 2.949219 C 3.792969 3.492188 5.121094 4.300781 5.328125 4.855469 C 5.394531 5.140625 5.378906 5.441406 5.292969 5.722656 C 4.273438 5.722656 3.074219 4.257812 2.121094 5.183594 C 1.941406 5.316406 1.84375 5.535156 1.867188 5.757812 C 1.964844 6.144531 2.65625 6.078125 2.886719 6.445312 L 2.886719 6.492188 C 3.246094 7.3125 2.417969 7.917969 2.40625 8.660156 C 2.40625 9.035156 2.6875 9.242188 2.570312 9.648438 C 2.164062 11.035156 0.851562 9.488281 0.222656 10.082031 C -0.402344 10.671875 0.300781 11.71875 0.347656 12.347656 C 0.296875 12.726562 0.222656 13.097656 0.121094 13.464844 C 0.171875 13.800781 0.28125 14.128906 0.449219 14.425781 C 0.570312 14.871094 0.449219 15.359375 0.6875 15.742188 C 1.394531 16.835938 2.574219 13.851562 3.136719 15.109375 C 3.566406 16.128906 1.378906 16.070312 1.324219 16.839844 C 1.265625 17.609375 2.574219 18.292969 3.082031 18.773438 C 3.5625 19.195312 3.871094 19.777344 3.960938 20.40625 C 3.949219 21.027344 3.824219 21.636719 3.59375 22.210938 C 3.796875 22.253906 4.011719 22.265625 4.21875 22.242188 C 5.328125 21.910156 5.980469 20.132812 5.796875 19.03125 C 5.628906 18.101562 5.121094 17.304688 5.054688 16.335938 C 4.988281 15.363281 5.917969 13.78125 5.054688 13.097656 L 4.9375 13.027344 C 4.863281 13.128906 4.734375 13.179688 4.609375 13.160156 C 4.425781 13.171875 4.242188 13.109375 4.101562 12.992188 C 4 12.933594 3.925781 12.835938 3.894531 12.71875 C 3.867188 12.605469 3.886719 12.484375 3.949219 12.382812 C 4.164062 12.066406 4.769531 12.128906 4.839844 11.703125 C 4.992188 10.765625 3.03125 10.582031 4.21875 9.421875 C 4.453125 9.179688 4.78125 9.050781 5.121094 9.074219 C 5.667969 9.117188 6.996094 9.515625 6.921875 10.21875 C 6.886719 10.539062 6.617188 10.839844 6.734375 11.199219 C 6.851562 11.554688 7.394531 11.53125 7.542969 11.878906 C 7.734375 12.351562 7.339844 12.703125 7.378906 13.148438 C 7.386719 13.242188 7.441406 13.324219 7.519531 13.367188 C 7.746094 13.453125 7.945312 13.585938 8.105469 13.761719 C 8.355469 14.3125 7.6875 14.988281 8.574219 15.292969 C 8.574219 14.898438 8.488281 14.375 8.828125 14.167969 C 8.894531 14.289062 8.976562 14.394531 9.078125 14.484375 C 9.359375 14.925781 9.476562 15.339844 10.046875 15.507812 C 10.03125 14.957031 9.878906 14.417969 9.597656 13.945312 C 10.003906 13.945312 10.257812 14.484375 10.722656 14.363281 C 11.183594 14.242188 10.769531 13.777344 10.671875 13.578125 C 10.390625 13.011719 10.792969 12.558594 10.625 12.046875 C 10.457031 11.535156 8.941406 11.035156 8.484375 10.605469 C 8.296875 10.457031 8.203125 10.21875 8.242188 9.984375 C 8.523438 9.117188 9.542969 9.632812 10.28125 9.425781 C 10.605469 9.308594 10.890625 9.105469 11.105469 8.835938 C 11.476562 8.453125 11.613281 7.894531 11.457031 7.378906 C 11.273438 7.121094 11.171875 6.808594 11.171875 6.492188 C 11.382812 4.929688 13.902344 5.015625 15.003906 5.582031 C 15.5625 5.871094 16.097656 6.53125 15.800781 7.207031 C 15.535156 7.800781 14.824219 7.457031 14.324219 7.675781 C 13.792969 8.058594 13.386719 8.59375 13.15625 9.207031 C 12.929688 9.839844 13.558594 10.320312 13.597656 10.9375 C 13.683594 12.285156 13.046875 13.527344 12.785156 14.746094 C 12.734375 14.972656 12.929688 15.257812 12.808594 15.476562 C 12.617188 15.804688 12.214844 15.6875 11.886719 15.804688 C 11.675781 15.921875 11.480469 16.066406 11.300781 16.230469 C 10.835938 16.523438 10.285156 16.667969 10.230469 17.308594 C 10.523438 17.308594 10.738281 17.152344 11.058594 17.121094 C 11.074219 17.117188 11.09375 17.121094 11.105469 17.132812 C 11.121094 17.144531 11.125 17.164062 11.125 17.179688 C 11.125 17.179688 11.125 17.222656 11.125 17.242188 C 11.054688 17.804688 10.617188 18.265625 10.875 18.867188 C 11.273438 18.867188 11.382812 17.9375 12.023438 18.183594 C 12.101562 18.183594 12.089844 18.183594 12.113281 18.253906 C 12.199219 18.664062 12.339844 19.058594 12.535156 19.433594 C 12.660156 19.414062 12.753906 19.300781 12.753906 19.171875 C 12.695312 18.726562 12.714844 18.273438 12.808594 17.835938 C 13.003906 17.324219 13.347656 17.394531 13.261719 16.710938 C 13.378906 16.652344 13.492188 16.582031 13.597656 16.496094 C 14.40625 16.21875 14.539062 15.746094 15.5625 15.777344 C 15.800781 15.769531 16.042969 15.808594 16.265625 15.898438 C 16.441406 15.898438 16.375 15.621094 16.308594 15.390625 C 15.949219 14.195312 15.496094 13.015625 15.496094 11.636719 L 15.6875 11.636719 C 15.894531 12.050781 16.136719 12.441406 16.410156 12.8125 C 16.566406 13.058594 17.058594 14.191406 17.496094 13.945312 C 17.699219 13.824219 17.820312 12.414062 17.9375 12.082031 C 18.371094 10.914062 19.59375 10.65625 20.316406 11.785156 C 21.039062 12.914062 20.574219 15.113281 19.703125 15.941406 C 19.363281 16.261719 18.875 16.261719 18.550781 16.5625 C 18.222656 16.863281 18.511719 17.46875 18.457031 17.882812 C 18.375 18.273438 18.171875 18.632812 17.871094 18.902344 C 17.261719 19.519531 16.433594 19.796875 15.804688 20.363281 C 15.535156 20.601562 15.476562 21 15.144531 21.148438 C 14.8125 21.296875 14.417969 21.105469 14.074219 21.210938 L 13.328125 21.679688 C 12.871094 21.917969 12.125 22.320312 11.882812 22.398438 C 11.882812 23.378906 14.21875 22.859375 14.695312 22.597656 C 15.039062 22.414062 15.140625 21.964844 15.476562 21.816406 C 15.8125 21.667969 16.152344 22.027344 16.539062 21.894531 C 16.902344 21.722656 17.242188 21.511719 17.558594 21.261719 C 18.183594 20.875 18.789062 20.453125 19.367188 20 C 19.605469 19.832031 19.800781 19.617188 19.949219 19.367188 C 20.097656 18.953125 19.441406 17.933594 20.601562 18.101562 C 21.496094 18.21875 22.390625 16.410156 22.558594 15.773438 C 22.660156 15.261719 22.757812 14.78125 22.855469 14.28125 L 23.226562 13.382812 C 23.441406 12.648438 22.777344 12.648438 22.671875 12.136719 Z M 2.355469 14.03125 C 2.03125 14.085938 1.703125 13.953125 1.511719 13.683594 C 1.320312 13.414062 1.300781 13.0625 1.457031 12.769531 C 1.59375 12.546875 1.796875 12.371094 2.035156 12.261719 C 2.296875 12.257812 2.554688 12.335938 2.769531 12.484375 C 3.042969 12.699219 3.164062 13.058594 3.074219 13.394531 C 2.984375 13.734375 2.703125 13.984375 2.355469 14.03125 Z M 7.15625 8.777344 C 7.066406 8.789062 6.972656 8.769531 6.894531 8.722656 C 5.984375 8.335938 6.359375 7.742188 6.707031 7.09375 C 7.398438 7.375 7.558594 8.566406 7.15625 8.777344 Z M 8.433594 11.464844 C 9.054688 11.710938 9.480469 12.292969 9.535156 12.960938 C 9.527344 13.035156 9.5 13.109375 9.457031 13.175781 C 9.308594 13.222656 9.148438 13.222656 9.003906 13.175781 C 8.320312 12.882812 8.421875 12.136719 8.421875 11.464844 Z M 15.148438 14.457031 C 15.109375 14.703125 14.984375 14.929688 14.789062 15.089844 C 14.472656 15.113281 14.179688 14.929688 14.0625 14.640625 C 14.003906 14.355469 14.003906 14.0625 14.0625 13.777344 C 14.089844 12.804688 14.242188 11.839844 14.519531 10.90625 C 14.835938 11.601562 14.722656 12.4375 14.875 13.210938 C 15.03125 13.609375 15.125 14.027344 15.144531 14.457031 Z M 19.730469 10.339844 C 19.304688 10.371094 18.878906 10.359375 18.457031 10.304688 C 16.859375 9.988281 18.238281 8.1875 18.578125 7.46875 C 19.230469 8.054688 19.953125 9.402344 19.730469 10.339844 Z M 105.917969 15.8125 C 106.515625 15.8125 107 16.300781 107 16.902344 C 107 17.5 106.515625 17.988281 105.917969 17.988281 C 105.316406 17.988281 104.832031 17.5 104.832031 16.902344 C 104.832031 16.300781 105.316406 15.8125 105.917969 15.8125 Z M 106.734375 16.902344 C 106.71875 16.453125 106.34375 16.097656 105.894531 16.109375 C 105.449219 16.121094 105.09375 16.492188 105.097656 16.941406 C 105.101562 17.390625 105.46875 17.753906 105.917969 17.753906 C 106.136719 17.75 106.351562 17.65625 106.503906 17.496094 C 106.65625 17.335938 106.742188 17.117188 106.734375 16.894531 Z M 105.855469 16.996094 L 105.675781 16.996094 L 105.675781 17.507812 L 105.464844 17.507812 L 105.464844 16.289062 L 105.9375 16.289062 C 106.238281 16.289062 106.390625 16.390625 106.390625 16.640625 C 106.394531 16.820312 106.257812 16.972656 106.078125 16.984375 L 106.410156 17.492188 L 106.164062 17.492188 Z M 105.890625 16.820312 C 106.042969 16.820312 106.179688 16.820312 106.179688 16.628906 C 106.179688 16.441406 106.027344 16.460938 105.90625 16.460938 L 105.667969 16.460938 L 105.667969 16.8125 L 105.878906 16.8125 Z M 105.890625 16.820312 "/>
</g>
</svg>
